<?xml version="1.0" standalone="no"?>
<!DOCTYPE svg PUBLIC "-//W3C//DTD SVG 20010904//EN"
 "http://www.w3.org/TR/2001/REC-SVG-20010904/DTD/svg10.dtd">
<svg version="1.0" xmlns="http://www.w3.org/2000/svg"
 width="1411.000000pt" height="1411.000000pt" viewBox="0 0 1411.000000 1411.000000"
 preserveAspectRatio="xMidYMid meet">
<metadata>
Created by potrace 1.14, written by Peter Selinger 2001-2017
</metadata>
<g transform="translate(0.000000,1411.000000) scale(0.100000,-0.100000)"
fill="#000000" stroke="none">
<path d="M12264 12247 c-6 -7 -24 -21 -40 -32 -15 -11 -47 -39 -69 -62 -23
-24 -45 -43 -49 -43 -4 0 -20 -14 -36 -30 -17 -17 -30 -27 -30 -23 0 4 -6 1
-13 -7 -7 -8 -30 -28 -52 -45 -22 -16 -49 -37 -59 -47 -11 -10 -24 -18 -28
-18 -5 0 -7 -4 -4 -8 3 -5 -8 -16 -24 -25 -15 -10 -40 -31 -54 -48 -14 -17
-26 -28 -26 -24 0 3 -6 0 -14 -7 -8 -7 -13 -14 -12 -16 2 -1 -26 -33 -61 -70
-35 -37 -71 -75 -81 -85 -9 -11 -16 -23 -15 -27 2 -5 -6 -12 -17 -15 -11 -4
-18 -10 -15 -15 3 -4 -2 -10 -10 -14 -8 -3 -15 -13 -15 -21 0 -9 -4 -13 -10
-10 -5 3 -10 1 -10 -5 0 -6 -11 -21 -25 -34 -14 -13 -25 -28 -25 -35 0 -6 -4
-11 -10 -11 -5 0 -10 -5 -10 -10 0 -6 -10 -21 -22 -34 -13 -13 -32 -36 -43
-51 -11 -16 -26 -34 -32 -41 -7 -7 -13 -17 -13 -23 0 -6 -4 -11 -10 -11 -5 0
-10 -7 -10 -15 0 -9 -7 -18 -15 -21 -8 -4 -15 -12 -15 -20 0 -8 -4 -14 -10
-14 -5 0 -10 -7 -10 -15 0 -8 -4 -15 -9 -15 -5 0 -19 -16 -31 -35 -12 -20 -29
-42 -37 -50 -8 -8 -11 -15 -7 -15 3 0 0 -7 -7 -16 -8 -10 -19 -29 -26 -43 -6
-14 -12 -20 -12 -13 -1 7 -5 11 -10 8 -5 -3 -21 6 -35 19 -15 14 -29 25 -32
25 -6 0 -81 76 -86 87 -3 9 -58 57 -128 113 -24 19 -54 45 -67 58 -12 13 -23
20 -23 17 0 -3 -11 5 -25 19 -14 14 -25 30 -25 36 0 6 -4 8 -10 5 -5 -3 -10 0
-10 7 0 8 -13 25 -30 38 -16 14 -29 29 -30 34 0 5 -10 19 -22 31 -35 33 -98
105 -93 105 2 0 -8 13 -23 30 -15 16 -36 41 -47 56 -11 14 -37 45 -57 68 -21
22 -38 47 -38 53 0 7 -4 13 -10 13 -5 0 -10 7 -10 15 0 8 -4 15 -10 15 -5 0
-10 7 -10 15 0 8 -4 15 -10 15 -5 0 -10 7 -10 15 0 8 -5 15 -11 15 -5 0 -8 4
-4 9 3 6 -3 14 -12 20 -10 6 -15 11 -11 11 4 0 -1 17 -12 38 -10 20 -23 49
-29 64 -14 38 -41 50 -72 33 -13 -8 -30 -17 -38 -21 -8 -4 -22 -15 -31 -23
-26 -25 -56 -48 -87 -68 -57 -37 -293 -267 -293 -285 0 -6 -3 -9 -6 -5 -4 3
-22 -12 -40 -34 -19 -23 -34 -37 -34 -32 0 4 -8 -4 -18 -20 -10 -15 -22 -24
-25 -20 -4 3 -7 -1 -7 -11 0 -9 -4 -15 -9 -11 -5 3 -12 -4 -16 -15 -3 -11 -14
-20 -22 -20 -9 0 -14 -2 -11 -5 2 -3 -42 -52 -98 -110 -56 -58 -102 -105 -100
-105 1 0 -30 -33 -69 -74 -38 -41 -80 -87 -92 -103 -12 -15 -44 -52 -71 -80
-27 -29 -48 -54 -46 -56 2 -2 -31 -38 -72 -81 -67 -69 -79 -77 -102 -71 -15 4
-49 8 -77 10 -78 5 -338 16 -465 20 -293 11 -297 11 -326 66 -8 17 -18 28 -21
26 -7 -8 -32 16 -26 26 2 4 -3 7 -12 7 -8 0 -23 9 -32 20 -10 11 -23 20 -30
20 -7 0 -13 3 -13 8 0 4 -23 23 -50 42 -27 19 -50 38 -50 43 0 4 -7 7 -17 7
-9 0 -13 3 -10 6 4 4 -9 19 -28 34 -19 15 -32 30 -28 34 3 3 -2 7 -13 8 -43 4
-50 5 -69 11 -16 5 -114 14 -200 19 -23 1 -280 -14 -285 -17 -3 -2 -54 -6
-112 -10 -59 -3 -116 -8 -126 -10 -10 -1 -49 -6 -87 -10 -38 -3 -74 -10 -80
-14 -5 -4 -29 -8 -52 -8 -45 -1 -173 -54 -173 -72 0 -6 -6 -11 -13 -11 -8 0
-34 -18 -58 -40 -64 -57 -69 -61 -69 -55 0 4 -14 -5 -31 -19 -17 -14 -34 -26
-39 -26 -5 0 -21 -11 -35 -25 -14 -14 -25 -22 -25 -18 0 4 -4 4 -8 -2 -10 -14
-70 -55 -80 -55 -5 0 -17 -9 -27 -20 -10 -11 -21 -17 -26 -15 -4 3 -10 1 -13
-3 -3 -5 -39 -10 -81 -10 -41 0 -76 -1 -77 -2 -4 -3 -124 -8 -313 -14 -93 -3
-253 -8 -355 -11 -102 -4 -233 -8 -292 -10 -58 -2 -111 -6 -117 -10 -6 -3 -11
-1 -11 5 0 6 -4 9 -9 6 -5 -4 -67 -8 -138 -11 -70 -3 -137 -7 -148 -10 -11 -2
-32 -4 -47 -4 -35 -1 -37 -11 -53 -256 -1 -27 -5 -84 -9 -125 -3 -41 -8 -111
-11 -155 -3 -44 -8 -100 -11 -125 -4 -25 -8 -67 -9 -95 -10 -158 -16 -237 -21
-290 -7 -80 -12 -135 -19 -225 -3 -41 -7 -91 -9 -110 -2 -19 -5 -69 -7 -110
-2 -41 -7 -84 -12 -96 -10 -23 26 -22 -1402 -26 -88 0 -167 -4 -176 -9 -9 -5
-20 -5 -23 -1 -11 10 -246 9 -246 -2 0 -5 -5 -5 -12 0 -15 11 -78 11 -95 1 -6
-4 -14 -3 -18 2 -4 7 -15 7 -30 1 -14 -5 -25 -6 -25 -1 0 4 -25 4 -55 0 -30
-4 -66 -6 -80 -5 -14 2 -25 -2 -25 -8 0 -6 -4 -5 -9 2 -4 8 -12 14 -16 14 -4
0 -12 -6 -16 -14 -5 -7 -9 -8 -9 -3 0 11 -120 12 -137 2 -6 -4 -13 -4 -17 0
-10 11 -276 9 -280 -2 -3 -7 -5 -7 -5 0 -1 10 -151 10 -1249 4 -342 -2 -383
-7 -355 -40 8 -11 26 -477 23 -619 0 -22 2 -91 4 -120 1 -14 -2 -35 -6 -47 -4
-13 -4 -23 0 -23 4 0 7 -46 8 -103 1 -108 4 -138 17 -148 4 -3 9 -50 12 -105
8 -142 13 -200 20 -263 4 -31 9 -87 11 -125 2 -38 6 -81 9 -95 3 -14 8 -62 10
-106 6 -101 13 -163 20 -184 4 -14 80 -41 123 -44 6 0 12 -5 12 -10 0 -6 3 -7
7 -4 3 4 11 3 17 -1 16 -12 110 -47 119 -44 4 1 7 -3 7 -10 0 -6 3 -8 6 -5 4
3 15 2 26 -4 11 -6 29 -12 40 -14 12 -3 24 -8 27 -12 6 -8 27 -15 49 -16 6 0
12 -3 12 -7 0 -4 19 -13 43 -19 23 -7 47 -16 52 -21 6 -4 22 -7 38 -6 15 1 27
-4 27 -10 0 -6 7 -17 15 -24 19 -16 56 -2 105 40 19 17 41 30 48 30 6 0 12 5
12 10 0 6 11 16 25 22 14 6 25 17 25 25 0 7 3 12 7 11 7 -2 75 43 93 62 17 17
90 70 97 70 5 0 15 9 23 20 8 11 20 20 27 20 7 0 13 3 13 8 0 4 21 21 45 37
25 17 45 33 45 38 0 4 6 7 14 7 8 0 17 7 20 16 4 9 9 14 12 11 4 -3 13 0 21 8
17 18 33 19 33 4 0 -5 4 -8 9 -5 5 3 10 -4 13 -17 6 -35 2 -1087 -5 -1093 -3
-3 1 -23 8 -45 8 -21 11 -39 7 -39 -4 0 -1 -4 6 -9 7 -4 14 -14 16 -22 5 -30
29 -61 77 -99 28 -22 55 -38 60 -34 5 3 9 1 9 -4 0 -5 21 -15 48 -22 26 -7 52
-14 57 -16 6 -2 21 -6 35 -10 39 -11 724 -3 980 12 186 10 194 10 207 1 7 -5
13 -6 13 -1 0 5 37 10 83 11 174 3 559 13 701 18 81 3 233 7 337 9 104 3 193
7 199 11 5 3 10 1 10 -5 0 -6 5 -8 11 -4 12 7 302 16 616 18 117 0 213 5 213
10 0 5 6 3 13 -3 8 -6 17 -8 20 -4 10 9 58 10 84 1 12 -4 25 -4 27 1 6 8 47
11 267 16 76 1 142 6 148 9 6 4 11 3 11 -3 0 -6 6 -8 14 -5 25 10 106 11 106
2 0 -5 6 -6 13 -1 6 4 41 8 77 9 169 4 581 15 725 20 88 3 246 7 350 9 105 3
278 7 385 11 107 3 264 7 347 8 84 0 153 3 153 6 0 3 62 5 138 6 75 1 220 3
321 4 136 3 186 1 189 -8 2 -7 7 -12 12 -12 4 0 40 -32 78 -70 38 -39 73 -70
77 -70 11 0 65 -58 65 -70 0 -5 7 -10 15 -10 8 0 20 -9 27 -20 7 -11 17 -20
21 -20 14 0 66 -47 60 -54 -4 -3 -1 -6 6 -6 6 0 24 -11 39 -25 65 -61 290
-256 340 -295 24 -19 131 -111 148 -127 7 -7 15 -13 18 -13 3 0 19 -13 34 -30
16 -16 35 -30 42 -30 7 0 11 -3 7 -6 -3 -3 20 -27 51 -52 31 -25 59 -49 60
-54 2 -4 10 -8 17 -8 8 0 17 -9 20 -21 4 -11 9 -18 12 -16 2 3 13 -2 23 -11
46 -42 80 -71 80 -68 0 2 25 -20 56 -50 30 -30 57 -54 60 -54 4 0 41 -31 88
-75 17 -16 51 -46 75 -65 24 -19 60 -51 80 -70 51 -47 104 -90 114 -90 5 0 5
-4 2 -10 -3 -5 -2 -10 3 -10 6 0 24 -12 41 -27 16 -16 43 -38 58 -51 15 -12
38 -31 51 -41 12 -10 22 -24 22 -31 0 -7 3 -11 6 -8 3 4 14 -1 23 -10 10 -9
37 -33 61 -52 24 -19 55 -45 69 -57 13 -13 28 -23 33 -23 5 0 6 -5 3 -10 -3
-6 1 -10 9 -10 9 0 16 -4 16 -10 0 -5 7 -10 15 -10 8 0 15 -4 15 -9 0 -4 20
-24 45 -43 24 -19 42 -38 38 -42 -3 -3 0 -6 8 -6 8 0 35 -20 61 -45 26 -24 57
-49 68 -55 11 -6 18 -15 15 -21 -4 -5 -2 -8 3 -7 5 2 21 -9 35 -24 14 -15 28
-24 31 -21 3 3 8 -2 12 -11 3 -9 12 -16 20 -16 8 0 14 -7 14 -16 0 -8 5 -12
10 -9 6 3 10 -1 10 -10 0 -9 5 -15 11 -13 6 2 28 -13 49 -34 20 -21 42 -38 48
-38 7 0 12 -7 12 -17 0 -9 3 -13 7 -10 3 4 12 -2 20 -13 8 -11 21 -20 29 -20
8 0 12 -4 9 -10 -3 -5 1 -10 10 -10 9 0 13 -4 10 -10 -3 -5 -1 -10 6 -10 6 0
25 -13 41 -30 15 -16 30 -30 33 -30 7 0 53 -40 81 -70 13 -14 24 -22 24 -18 0
3 15 -8 33 -26 18 -17 56 -51 85 -76 73 -62 112 -95 144 -125 15 -14 32 -25
38 -25 6 0 9 -4 6 -8 -3 -5 6 -15 19 -22 14 -7 25 -17 25 -22 0 -4 8 -8 17 -8
9 0 14 -3 10 -6 -3 -4 25 -31 63 -61 39 -30 70 -59 70 -64 0 -6 5 -7 10 -4 6
3 10 2 10 -3 0 -5 33 -36 73 -68 39 -32 80 -69 90 -81 10 -13 23 -21 28 -18 5
4 9 -1 9 -10 0 -9 5 -13 10 -10 6 3 10 1 10 -4 0 -6 16 -21 35 -33 19 -13 37
-31 41 -40 3 -10 8 -17 12 -17 20 3 32 -2 32 -14 0 -8 11 -19 25 -25 14 -7 28
-19 31 -27 4 -8 10 -12 15 -9 5 3 9 -2 9 -10 0 -9 7 -16 15 -16 8 0 15 -4 15
-9 0 -5 15 -19 34 -32 19 -13 32 -27 30 -31 -3 -4 1 -8 8 -8 7 0 34 -20 59
-43 26 -23 60 -53 78 -67 17 -14 45 -38 63 -55 18 -16 57 -50 87 -75 29 -25
60 -51 67 -58 8 -7 14 -11 14 -7 0 6 52 -20 90 -45 14 -9 54 -36 89 -59 95
-63 125 -85 133 -96 4 -5 8 -6 8 -1 0 5 8 -1 19 -12 10 -12 21 -22 24 -22 3 0
17 -10 30 -22 30 -29 66 -58 72 -58 2 0 15 -10 27 -22 13 -13 41 -36 63 -53
21 -16 44 -36 52 -43 7 -7 13 -10 13 -7 0 4 16 -9 35 -29 l35 -36 280 0 280 0
0 3976 0 3975 -27 -5 c-16 -3 -46 -10 -68 -16 -22 -6 -47 -13 -55 -15 -8 -2
-15 -4 -15 -5 0 -1 -10 -3 -23 -6 -26 -5 -271 -86 -317 -105 -16 -7 -33 -13
-37 -14 -5 -2 -9 -3 -10 -4 -2 -2 -13 -4 -25 -7 -18 -3 -23 1 -25 19 -1 12 -2
29 -3 37 0 8 -3 20 -6 25 -8 13 -4 112 5 145 4 14 9 32 11 40 2 8 4 15 5 15 1
0 4 11 7 25 7 39 11 55 13 55 1 0 3 8 5 18 2 10 7 26 11 35 4 9 8 24 9 32 3
22 24 99 42 150 8 25 16 50 17 55 1 6 5 16 9 23 5 6 6 12 3 12 -3 0 2 19 10
43 9 23 17 50 19 59 2 9 8 25 13 35 5 10 8 28 7 40 -1 12 1 20 5 18 5 -3 28
60 36 98 1 4 3 9 4 12 1 3 3 8 5 13 1 4 4 14 8 22 16 41 41 126 39 133 -1 4 2
7 6 7 4 0 8 8 9 18 1 9 7 31 14 47 6 17 13 37 14 45 2 8 14 62 28 119 25 103
24 141 -4 141 -17 0 -79 -31 -79 -40 0 -4 -11 -11 -25 -14 -14 -4 -25 -11 -25
-16 0 -6 -6 -10 -14 -10 -7 0 -26 -10 -42 -22 -16 -13 -30 -22 -32 -20 -4 4
-62 -31 -62 -38 0 -4 -16 -12 -35 -20 -19 -8 -35 -17 -35 -21 0 -3 -13 -12
-30 -19 -16 -7 -30 -16 -30 -20 0 -4 -8 -10 -17 -14 -22 -7 -85 -45 -111 -66
-10 -8 -25 -16 -33 -18 -8 -2 -20 -10 -26 -19 -7 -9 -13 -14 -13 -10 0 3 -21
-6 -47 -21 -27 -15 -66 -36 -88 -47 -22 -11 -41 -23 -43 -27 -2 -5 -12 -8 -23
-8 -10 0 -19 -4 -19 -9 0 -5 -11 -12 -25 -15 -14 -4 -25 -11 -25 -16 0 -6 -4
-10 -10 -10 -5 0 -49 -19 -96 -42 -48 -23 -93 -41 -100 -41 -8 0 -14 -3 -14
-7 0 -4 -35 -22 -77 -40 -43 -19 -82 -37 -88 -40 -5 -4 -21 -10 -36 -13 -23
-6 -26 -2 -43 51 -27 84 -27 84 -32 127 -3 22 -12 72 -19 111 -14 66 -17 91
-30 218 -9 86 -15 130 -25 186 -5 30 -12 78 -15 105 -4 28 -9 64 -12 80 -2 17
-6 39 -8 50 -13 85 -18 106 -60 275 -10 39 -12 97 -9 195 5 166 5 165 16 165
5 0 7 4 3 9 -3 5 -1 12 5 16 6 4 7 13 1 23 -10 20 -7 127 4 156 13 30 -37 49
-61 23z m-2099 -235 c-3 -3 3 -14 12 -24 14 -15 14 -19 3 -16 -8 2 -14 -2 -13
-9 2 -6 -6 -11 -17 -10 -10 1 -17 4 -14 8 2 4 -6 9 -18 11 -14 2 -22 9 -19 18
2 8 4 20 4 27 0 6 7 9 15 5 10 -3 13 -1 8 6 -6 9 -1 9 18 0 15 -6 24 -14 21
-16z"/>
</g>
</svg>
